<svg width="42" height="60" viewBox="0 0 42 60" fill="none" xmlns="http://www.w3.org/2000/svg">
<path d="M41.37 15.73L26.67 1.03002C26.25 0.610024 25.83 0.400024 25.2 0.400024H4.2C1.89 0.400024 0 2.29002 0 4.60002V55C0 57.31 1.89 59.2 4.2 59.2H37.8C40.11 59.2 42 57.31 42 55V17.2C42 16.57 41.79 16.15 41.37 15.73ZM25.2 5.44002L36.96 17.2H25.2V5.44002ZM37.8 55H4.2V4.60002H21V17.2C21 19.51 22.89 21.4 25.2 21.4H37.8V55Z" fill="white"/>
<path d="M8.3999 42.4H33.5999V46.6H8.3999V42.4Z" fill="white"/>
<path d="M8.3999 29.8H33.5999V34H8.3999V29.8Z" fill="white"/>
</svg>
