<svg width="58" height="58" viewBox="0 0 58 58" fill="none" xmlns="http://www.w3.org/2000/svg">
<path d="M57.9434 26.791C57.9434 26.64 57.9245 26.4889 57.8867 26.3379C57.849 26.1868 57.8018 26.0358 57.7451 25.8848C57.6885 25.7337 57.6224 25.5921 57.5469 25.46C57.4714 25.3278 57.377 25.2051 57.2637 25.0918L57.207 25.0352C57.1315 24.9219 57.0371 24.8086 56.9238 24.6953L56.584 24.3555L47.125 14.8398V9.00586C47.125 8.51497 46.9456 8.09017 46.5869 7.73145C46.2282 7.37272 45.8034 7.19336 45.3125 7.19336H39.5918L32.9648 1.5293C32.5495 1.11393 32.0869 0.783529 31.5772 0.538086C31.0674 0.292643 30.5293 0.132161 29.9629 0.0566406C29.3965 -0.0188802 28.8301 -0.0188802 28.2637 0.0566406C27.6973 0.132161 27.1592 0.292643 26.6494 0.538086C26.1396 0.783529 25.6771 1.11393 25.2617 1.5293L18.6914 7.19336H12.6875C12.1966 7.19336 11.7718 7.37272 11.4131 7.73145C11.0544 8.09017 10.875 8.51497 10.875 9.00586V14.9531L1.64258 24.1855C0.547526 24.903 0 25.9225 0 27.2441V54.375C0 55.3945 0.358724 56.2536 1.07617 56.9521C1.79362 57.6507 2.64323 58 3.625 58H54.375C55.0169 58 55.6211 57.8395 56.1875 57.5186C56.7539 57.1976 57.1976 56.7539 57.5186 56.1875C57.8395 55.6211 58 55.0169 58 54.375V27.0742L57.9434 26.791ZM15.2363 41.1211L3.625 51.8828V30.8691L15.2363 41.1211ZM18.748 42.8203C18.9746 42.707 19.1823 42.5371 19.3711 42.3105C19.4089 42.2728 19.4466 42.2256 19.4844 42.1689C19.5221 42.1123 19.5599 42.0462 19.5977 41.9707L27.4141 34.7207C27.8294 34.3809 28.3014 34.2109 28.8301 34.2109C29.3587 34.2109 29.8118 34.362 30.1895 34.6641L51.9395 54.375H6.23047L18.748 42.8203ZM42.9336 41.3477L54.375 31.209V51.6562L42.9336 41.3477ZM50.8633 23.6191H50.8066L53.9219 26.7344L47.125 32.7949V19.8809L50.8633 23.6191ZM27.8105 4.07812C28.1882 3.73828 28.6224 3.56836 29.1133 3.56836C29.3398 3.56836 29.5664 3.61556 29.793 3.70996C30.0195 3.80436 30.2272 3.92708 30.416 4.07812L34.041 7.19336H24.1855L27.8105 4.07812ZM43.5 10.8184V36.0234L40.2715 38.9121L32.5117 31.8887C32.2852 31.6999 32.0397 31.5299 31.7754 31.3789C31.5111 31.2279 31.2467 31.1051 30.9824 31.0107C30.7181 30.9163 30.4443 30.8314 30.1611 30.7559C29.8779 30.6803 29.5853 30.6331 29.2832 30.6143C28.9811 30.5954 28.6885 30.5954 28.4053 30.6143C28.1221 30.6331 27.8294 30.6803 27.5273 30.7559C27.2253 30.8314 26.9421 30.9258 26.6777 31.0391C26.4134 31.1523 26.1396 31.2845 25.8564 31.4355C25.5732 31.5866 25.3184 31.7565 25.0918 31.9453L17.8984 38.6289L14.5 35.627V10.8184H43.5ZM5.89062 25.0918L10.875 20.1074V32.3984L4.24805 26.5645L5.77734 25.0918H5.89062Z" fill="#FFBD66"/>
</svg>
