<svg width="41" height="40" viewBox="0 0 41 40" fill="none" xmlns="http://www.w3.org/2000/svg">
<path d="M39.6 20H36.8C36.58 20 36.4 20.18 36.4 20.4V36.4H3.6V3.6H19.6C19.82 3.6 20 3.42 20 3.2V0.4C20 0.18 19.82 0 19.6 0H1.6C0.715 0 0 0.715 0 1.6V38.4C0 39.285 0.715 40 1.6 40H38.4C39.285 40 40 39.285 40 38.4V20.4C40 20.18 39.82 20 39.6 20Z" fill="white"/>
<path d="M12.1956 21.145L12.1006 27.09C12.0956 27.535 12.4556 27.9 12.9006 27.9H12.9206L18.8206 27.755C18.9206 27.75 19.0206 27.71 19.0906 27.64L39.8856 6.89C40.0406 6.735 40.0406 6.48 39.8856 6.325L33.6706 0.115C33.5906 0.0350002 33.4906 0 33.3856 0C33.2806 0 33.1806 0.0400002 33.1006 0.115L12.3106 20.865C12.2384 20.9405 12.1974 21.0405 12.1956 21.145ZM15.3706 22.325L33.3856 4.35L35.6456 6.605L17.6206 24.59L15.3356 24.645L15.3706 22.325Z" fill="white"/>
</svg>
